<?xml version="1.0" encoding="UTF-8" standalone="no" ?>
<!DOCTYPE svg PUBLIC "-//W3C//DTD SVG 1.1//EN" "http://www.w3.org/Graphics/SVG/1.1/DTD/svg11.dtd">
<svg xmlns="http://www.w3.org/2000/svg" xmlns:xlink="http://www.w3.org/1999/xlink" version="1.1" width="1080" height="1080" viewBox="0 0 1080 1080" xml:space="preserve">
<desc>Created with Fabric.js 5.2.4</desc>
<defs>
</defs>
<rect x="0" y="0" width="100%" height="100%" fill="transparent"></rect>
<g transform="matrix(1 0 0 1 540 540)" id="09b75288-b480-4399-838b-135b3f87d02e"  >
<rect style="stroke: none; stroke-width: 1; stroke-dasharray: none; stroke-linecap: butt; stroke-dashoffset: 0; stroke-linejoin: miter; stroke-miterlimit: 4; fill: rgb(255,255,255); fill-rule: nonzero; opacity: 1; visibility: hidden;" vector-effect="non-scaling-stroke"  x="-540" y="-540" rx="0" ry="0" width="1080" height="1080" />
</g>
<g transform="matrix(1 0 0 1 540 540)" id="bce68224-5f3d-4b98-bb7e-03b828dd0e37"  >
</g>
<g transform="matrix(11.49 0 0 11.49 540 540)"  >
<g style=""   >
		<g transform="matrix(1 0 0 1 -19.32 29.8)"  >
<path style="stroke: none; stroke-width: 1; stroke-dasharray: none; stroke-linecap: butt; stroke-dashoffset: 0; stroke-linejoin: miter; stroke-miterlimit: 4; fill: rgb(36,41,47); fill-rule: nonzero; opacity: 1;" vector-effect="non-scaling-stroke"  transform=" translate(-80.69, -129.8)" d="M 89.632 142.298 C 88.53200000000001 142.298 87.632 142.398 87.632 141.298 L 87.632 128.298 C 87.632 124.598 83.83200000000001 121.298 79.432 121.298 L 69.83200000000001 121.298 L 69.83200000000001 117.298 L 79.33200000000001 117.298 C 85.932 117.298 91.53200000000001 122.298 91.53200000000001 128.298 L 91.53200000000001 141.298 C 91.632 142.398 90.732 142.298 89.632 142.298 z" stroke-linecap="round" />
</g>
		<g transform="matrix(1 0 0 1 0.33 -0.3)"  >
<path style="stroke: none; stroke-width: 1; stroke-dasharray: none; stroke-linecap: butt; stroke-dashoffset: 0; stroke-linejoin: miter; stroke-miterlimit: 4; fill: rgb(36,41,47); fill-rule: nonzero; opacity: 1;" vector-effect="non-scaling-stroke"  transform=" translate(-100.33, -99.7)" d="M 119.532 143.298 L 88.632 143.298 C 88.132 143.298 87.632 143.098 87.232 142.698 L 66.932 122.39800000000001 C 66.532 122.09800000000001 66.33200000000001 121.59800000000001 66.33200000000001 120.998 L 66.33200000000001 70.898 C 66.33200000000001 62.69799999999999 72.932 56.098 81.132 56.098 L 119.53200000000001 56.098 C 127.73200000000001 56.098 134.33200000000002 62.698 134.33200000000002 70.898 L 134.33200000000002 128.498 C 134.332 136.698 127.732 143.298 119.532 143.298 z M 89.432 139.298 L 119.53200000000001 139.298 C 125.53200000000001 139.298 130.33200000000002 134.498 130.33200000000002 128.498 L 130.33200000000002 70.898 C 130.33200000000002 64.898 125.53200000000002 60.098 119.53200000000002 60.098 L 81.13200000000003 60.098 C 75.13200000000003 60.098 70.33200000000004 64.898 70.33200000000004 70.898 L 70.33200000000004 120.198 L 89.432 139.298 z" stroke-linecap="round" />
</g>
		<g transform="matrix(1 0 0 1 -0.27 -18.4)"  >
<path style="stroke: none; stroke-width: 1; stroke-dasharray: none; stroke-linecap: butt; stroke-dashoffset: 0; stroke-linejoin: miter; stroke-miterlimit: 4; fill: rgb(36,41,47); fill-rule: nonzero; opacity: 1;" vector-effect="non-scaling-stroke"  transform=" translate(-99.73, -81.6)" d="M 115.732 83.598 L 83.732 83.598 C 82.632 83.598 81.732 82.698 81.732 81.598 C 81.732 80.498 82.632 79.598 83.732 79.598 L 115.732 79.598 C 116.832 79.598 117.732 80.498 117.732 81.598 C 117.732 82.698 116.832 83.598 115.732 83.598 z" stroke-linecap="round" />
</g>
		<g transform="matrix(1 0 0 1 -0.27 -6.4)"  >
<path style="stroke: none; stroke-width: 1; stroke-dasharray: none; stroke-linecap: butt; stroke-dashoffset: 0; stroke-linejoin: miter; stroke-miterlimit: 4; fill: rgb(36,41,47); fill-rule: nonzero; opacity: 1;" vector-effect="non-scaling-stroke"  transform=" translate(-99.73, -93.6)" d="M 115.732 95.598 L 83.732 95.598 C 82.632 95.598 81.732 94.698 81.732 93.598 C 81.732 92.498 82.632 91.598 83.732 91.598 L 115.732 91.598 C 116.832 91.598 117.732 92.498 117.732 93.598 C 117.732 94.698 116.832 95.598 115.732 95.598 z" stroke-linecap="round" />
</g>
		<g transform="matrix(1 0 0 1 -0.27 5.6)"  >
<path style="stroke: none; stroke-width: 1; stroke-dasharray: none; stroke-linecap: butt; stroke-dashoffset: 0; stroke-linejoin: miter; stroke-miterlimit: 4; fill: rgb(36,41,47); fill-rule: nonzero; opacity: 1;" vector-effect="non-scaling-stroke"  transform=" translate(-99.73, -105.6)" d="M 115.732 107.598 L 83.732 107.598 C 82.632 107.598 81.732 106.698 81.732 105.598 C 81.732 104.498 82.632 103.598 83.732 103.598 L 115.732 103.598 C 116.832 103.598 117.732 104.498 117.732 105.598 C 117.732 106.698 116.832 107.598 115.732 107.598 z" stroke-linecap="round" />
</g>
</g>
</g>
<g transform="matrix(0 0 0 0 0 0)"  >
<g style=""   >
</g>
</g>
<g transform="matrix(0 0 0 0 0 0)"  >
<g style=""   >
</g>
</g>
<g transform="matrix(0 0 0 0 0 0)"  >
<g style=""   >
</g>
</g>
</svg>