<svg xmlns="http://www.w3.org/2000/svg" viewBox="0 0 82.59 42.6"><defs><style>.cls-1{fill: #8c7178;}</style></defs>
  <g id="Layer_2" data-name="Layer 2"><g id="Layer_1-2" data-name="Layer 1">
  <path class="cls-1" d="M16.28,5.54A11.87,11.87,0,0,0,10,5.4c-2,.43-3.3,1.14-3.3,4,0,3.06,1.38,5.28,5.7,9.06,5.52,4.86,7.26,8.22,7.26,13.44,0,6.84-3.48,10.68-10,10.68S0,38.76,0,32V31.5a1.86,1.86,0,0,1,1.86-1.86H4.38A1.86,1.86,0,0,1,6.24,31.5v1c0,3,1.32,4.08,3.42,4.08s3.42-1.08,3.42-4.2c0-3.48-1.32-5.7-5.64-9.48C1.92,18.06.12,14.64.12,9.84.12,3.24,3.58,0,10,0h5.9"/>
  <path class="cls-1" d="M15.79,0h3.1a2.85,2.85,0,0,1,2.67,2.8l2.35,29.48H24L26.5,2.78A2.85,2.85,0,0,1,29.17,0h1.41a2.85,2.85,0,0,1,2.67,2.78l2.49,29.5h.1L38.19,2.8A2.85,2.85,0,0,1,40.86,0h2.52L39.91,39.23A2.86,2.86,0,0,1,37.24,42H34.91a2.85,2.85,0,0,1-2.67-2.75L29.88,13.68h-.11L27.41,39.25A2.86,2.86,0,0,1,24.74,42h-2.8a2.85,2.85,0,0,1-2.67-2.77Z"/>
    <path class="cls-1" d="M61.89,0h7.27a1.29,1.29,0,0,1,1.26,1l6.17,24.16h.12V1.3A1.3,1.3,0,0,1,78,0h3.28a1.3,1.3,0,0,1,1.3,1.3V40.7a1.3,1.3,0,0,1-1.3,1.3H76.82a1.29,1.29,0,0,1-1.26-1L67.89,11.34h-.12V40.7a1.3,1.3,0,0,1-1.3,1.3H61.89Z"/>
  <path class="cls-1" d="M43.39,35,54.33,8.09A1.52,1.52,0,0,0,52.92,6H42.79V0H62.26V5.88L50,36H62.26v6H45.61a2.68,2.68,0,0,1-2.67-2.67v-2A6.25,6.25,0,0,1,43.39,35Z"/></g></g>
</svg>
