<?xml version="1.0" encoding="UTF-8" standalone="no" ?>
<!DOCTYPE svg PUBLIC "-//W3C//DTD SVG 1.1//EN" "http://www.w3.org/Graphics/SVG/1.1/DTD/svg11.dtd">
<svg xmlns="http://www.w3.org/2000/svg" xmlns:xlink="http://www.w3.org/1999/xlink" version="1.1" width="1080" height="1080" viewBox="0 0 1080 1080" xml:space="preserve">
<desc>Created with Fabric.js 5.2.4</desc>
<defs>
</defs>
<g transform="matrix(1 0 0 1 540 540)" id="64211356-c2cd-4250-87fc-6f96c4377ebb"  >
</g>
<g transform="matrix(1 0 0 1 540 540)" id="36c19f28-71e0-4e12-9636-e79842cd6bef"  >
<rect style="stroke: none; stroke-width: 1; stroke-dasharray: none; stroke-linecap: butt; stroke-dashoffset: 0; stroke-linejoin: miter; stroke-miterlimit: 4; fill: rgb(255,255,255); fill-rule: nonzero; opacity: 1; visibility: hidden;" vector-effect="non-scaling-stroke"  x="-540" y="-540" rx="0" ry="0" width="1080" height="1080" />
</g>
<g transform="matrix(8.77 0 0 8.77 540 540)"  >
<path style="stroke: none; stroke-width: 1; stroke-dasharray: none; stroke-linecap: butt; stroke-dashoffset: 0; stroke-linejoin: miter; stroke-miterlimit: 4; fill: rgb(0,0,0); fill-rule: nonzero; opacity: 1;" vector-effect="non-scaling-stroke"  transform=" translate(-64, -64)" d="M 114 15.25 L 14 15.25 C 8.617736669780191 15.256062044021872 4.256062044021871 19.617736669780196 4.25 25.000000000000007 L 4.25 102 C 4.256613289502164 107.93431958787163 9.065680412128373 112.74338671049784 15.000000000000002 112.75 L 113 112.75 C 118.93431958787163 112.74338671049783 123.74338671049783 107.93431958787163 123.75 102 L 123.75 25 C 123.74393795597813 19.617736669780193 119.3822633302198 15.25606204402187 114 15.25 Z M 120.25 25 L 120.25 36.683 L 52.888 36.683 L 61.37 18.75 L 114 18.75 C 117.45018050114017 18.753857724805517 120.24614227519449 21.549819498859833 120.25 25.000000000000004 Z M 14 18.75 L 57.5 18.75 L 49.016 36.683 L 7.75 36.683 L 7.75 25 C 7.753857724805516 21.54981949885983 10.549819498859826 18.75385772480552 13.999999999999996 18.75 Z M 113 109.25 L 15 109.25 C 10.99776324052262 109.24559103233169 7.754408967668318 106.00223675947738 7.750000000000001 102 L 7.75 40.183 L 120.25 40.183 L 120.25 102 C 120.24559103233169 106.00223675947738 117.00223675947738 109.24559103233169 113 109.25 Z" stroke-linecap="round" />
</g>
<g transform="matrix(8.44 0 0 8.44 182.05 233.96)"  >
<path style="stroke: none; stroke-width: 1; stroke-dasharray: none; stroke-linecap: butt; stroke-dashoffset: 0; stroke-linejoin: miter; stroke-miterlimit: 4; fill: rgb(0,0,0); fill-rule: nonzero; opacity: 1;" vector-effect="non-scaling-stroke"  transform=" translate(-21.57, -27.72)" d="M 21.57 33.466 C 24.745637311527062 33.466 27.32 30.891637311527063 27.32 27.716 C 27.32 24.54036268847294 24.745637311527062 21.966 21.57 21.966 C 18.39436268847294 21.966 15.82 24.54036268847294 15.82 27.716 C 15.823307104398088 30.890266454869472 18.39573354513053 33.46269289560191 21.57 33.466 Z M 21.57 25.466 C 22.812640687119284 25.466 23.82 26.473359312880717 23.82 27.716 C 23.82 28.958640687119285 22.812640687119288 29.966 21.57 29.966 C 20.327359312880716 29.966 19.32 28.95864068711929 19.32 27.716 C 19.321652637587118 26.474044501890468 20.328044501890467 25.46765263758712 21.57 25.466 Z" stroke-linecap="round" />
</g>
<g transform="matrix(8.44 0 0 8.44 317.6 233.96)"  >
<path style="stroke: none; stroke-width: 1; stroke-dasharray: none; stroke-linecap: butt; stroke-dashoffset: 0; stroke-linejoin: miter; stroke-miterlimit: 4; fill: rgb(0,0,0); fill-rule: nonzero; opacity: 1;" vector-effect="non-scaling-stroke"  transform=" translate(-37.63, -27.72)" d="M 37.626 33.466 C 40.80163731152706 33.466 43.376 30.891637311527063 43.376 27.716 C 43.376 24.54036268847294 40.80163731152706 21.966 37.626 21.966 C 34.450362688472936 21.966 31.875999999999998 24.54036268847294 31.875999999999998 27.716 C 31.879307104398087 30.890266454869472 34.45173354513053 33.46269289560191 37.626 33.466 Z M 37.626 25.466 C 38.86864068711928 25.466 39.876 26.473359312880717 39.876 27.716 C 39.876 28.958640687119285 38.86864068711928 29.966 37.626 29.966 C 36.383359312880714 29.966 35.376 28.95864068711929 35.376 27.716 C 35.37765263758712 26.474044501890468 36.384044501890465 25.46765263758712 37.626 25.466 Z" stroke-linecap="round" />
</g>
<g transform="matrix(8.44 0 0 8.44 758.69 233.96)"  >
<path style="stroke: none; stroke-width: 1; stroke-dasharray: none; stroke-linecap: butt; stroke-dashoffset: 0; stroke-linejoin: miter; stroke-miterlimit: 4; fill: rgb(0,0,0); fill-rule: nonzero; opacity: 1;" vector-effect="non-scaling-stroke"  transform=" translate(-89.89, -27.72)" d="M 67.522 29.466 L 112.267 29.466 C 113.23349831220388 29.466 114.017 28.68249831220389 114.017 27.716 C 114.017 26.749501687796112 113.23349831220388 25.966 112.267 25.966 L 67.522 25.966 C 66.55550168779612 25.966 65.772 26.749501687796112 65.772 27.716 C 65.772 28.68249831220389 66.55550168779612 29.466 67.522 29.466 Z" stroke-linecap="round" />
</g>
</svg>